<svg version="1.1" id="Layer_1" xmlns="http://www.w3.org/2000/svg" xmlns:xlink="http://www.w3.org/1999/xlink" x="0px" y="0px"
	 width="100%" viewBox="0 0 588 162" enable-background="new 0 0 588 162" xml:space="preserve">
<path fill="#FEFEFE" opacity="1.000000" stroke="none" 
	d="
M402.000000,163.000000 
	C268.000000,163.000000 134.500000,163.000000 1.000000,163.000000 
	C1.000000,109.000000 1.000000,55.000000 1.000000,1.000000 
	C197.000000,1.000000 393.000000,1.000000 589.000000,1.000000 
	C589.000000,55.000000 589.000000,109.000000 589.000000,163.000000 
	C526.833313,163.000000 464.666656,163.000000 402.000000,163.000000 
M78.499855,126.570831 
	C85.665596,126.570572 92.881813,127.085442 99.979431,126.389938 
	C104.754608,125.922005 110.008980,124.709755 113.897308,122.108803 
	C120.178909,117.906960 121.928596,109.659615 119.515900,102.865555 
	C116.972427,95.703209 110.593491,91.100655 102.658646,91.036133 
	C89.994415,90.933151 77.327431,91.116997 64.664108,90.967735 
	C48.955967,90.782578 35.792828,81.592972 31.128448,67.824554 
	C23.665941,45.796566 39.007809,23.051279 62.370075,22.031092 
	C74.179962,21.515377 86.028160,21.864845 97.859085,21.846458 
	C108.945168,21.829229 120.031311,21.842768 132.392380,21.842768 
	C130.011368,20.007494 128.677673,18.864923 127.234047,17.884144 
	C109.316277,5.711052 89.632477,1.334707 68.290550,4.942878 
	C14.229779,14.082660 -14.138589,75.661423 13.858872,122.751373 
	C15.647606,125.759918 17.646233,126.671303 21.007610,126.644135 
	C39.837326,126.491936 58.668903,126.570602 78.499855,126.570831 
M41.918938,150.597672 
	C71.316818,166.295807 100.262657,165.562286 127.753807,146.637772 
	C161.366745,123.499100 170.957794,75.248253 149.277725,41.834354 
	C148.382629,40.454792 146.351273,38.966171 144.841125,38.957546 
	C117.509903,38.801498 90.176239,38.751022 62.846786,39.034035 
	C59.607426,39.067581 55.946869,40.554279 53.249397,42.456326 
	C46.616142,47.133587 44.521172,54.504776 46.911728,61.881275 
	C49.332233,69.350182 55.627808,73.917160 63.988811,73.976646 
	C76.654472,74.066765 89.324684,73.813957 101.986771,74.045601 
	C125.992905,74.484772 142.631088,96.438759 135.845764,118.472687 
	C131.140381,133.752457 118.725998,142.821136 101.521553,143.106155 
	C87.859001,143.332489 74.189819,143.159439 60.523582,143.161942 
	C51.278275,143.163635 42.032967,143.162277 32.787659,143.162277 
	C32.679111,143.474243 32.570564,143.786209 32.462017,144.098175 
	C35.412319,146.128082 38.362625,148.157990 41.918938,150.597672 
M495.374786,54.572826 
	C485.209198,54.146156 478.506805,60.092640 472.663239,67.681046 
	C464.688782,51.348267 450.612427,50.176010 432.887848,64.029854 
	C431.737671,59.039547 429.655640,55.015884 423.581909,56.015659 
	C419.327301,56.715996 417.701447,59.857498 417.690308,67.173080 
	C417.676849,76.004837 417.678833,84.836639 417.688416,93.668411 
	C417.696014,100.666481 417.660217,107.665535 417.768188,114.662231 
	C417.836700,119.101196 420.019684,121.927666 424.620941,122.317757 
	C428.966797,122.686195 431.800751,120.058899 432.459229,115.109940 
	C432.699341,113.305504 432.630737,111.456062 432.648346,109.626625 
	C432.741455,99.965034 432.513275,90.288055 432.995850,80.646416 
	C433.375366,73.064751 439.883118,67.980179 447.767151,68.244606 
	C455.012238,68.487610 458.760345,72.238213 459.186462,80.527641 
	C459.579498,88.173775 459.380524,95.849297 459.498688,103.511009 
	C459.565430,107.835258 459.492126,112.184868 459.950500,116.472969 
	C460.362427,120.326653 462.842957,122.056259 466.864319,122.076759 
	C470.822357,122.096924 473.255707,120.466370 474.075531,116.705032 
	C474.495239,114.779305 474.476532,112.739975 474.504272,110.749878 
	C474.645782,100.591980 474.375488,90.412201 474.967896,80.282104 
	C475.400543,72.883049 481.795380,68.073746 489.536499,68.226379 
	C496.931580,68.372185 500.670227,72.426941 501.141876,80.898209 
	C501.271454,83.225327 501.277679,85.561111 501.282837,87.893051 
	C501.302307,96.724434 501.123291,105.560745 501.369232,114.385437 
	C501.513611,119.566086 504.633667,122.456413 509.062531,122.357185 
	C513.388123,122.260269 516.142883,119.519859 516.175537,114.457397 
	C516.257080,101.796059 516.488586,89.113060 515.883179,76.475967 
	C515.207520,62.372307 508.824982,55.766811 495.374786,54.572826 
M539.488708,119.102272 
	C553.168945,126.155594 566.392761,124.997780 579.141357,116.759262 
	C582.496277,114.591232 583.765442,111.353157 581.793762,107.708374 
	C579.866394,104.145584 576.421265,104.234505 573.017639,105.203644 
	C571.928101,105.513885 570.955139,106.249680 569.944702,106.819023 
	C561.790771,111.413513 553.668335,111.119873 545.939514,106.074165 
	C541.902588,103.438721 539.149536,99.622772 538.799805,94.165184 
	C552.539795,94.165184 565.684509,94.207092 578.828735,94.144127 
	C583.939087,94.119644 586.895386,91.786980 586.934387,87.356522 
	C587.119629,66.294456 566.147827,49.332218 546.059265,56.111034 
	C533.169189,60.460747 525.962585,69.996933 524.089478,83.247925 
	C522.029053,97.824081 525.721191,110.332565 539.488708,119.102272 
M409.839844,82.078667 
	C405.019928,58.036861 379.736420,48.304214 360.837158,58.314117 
	C347.192383,65.541023 341.811157,77.580353 342.859283,92.788612 
	C343.873535,107.505531 354.335510,119.811447 368.525391,122.746277 
	C384.551910,126.060966 399.683411,119.275864 406.598969,105.821297 
	C410.336456,98.549805 410.682281,90.856560 409.839844,82.078667 
M272.357056,110.732353 
	C273.286255,108.081482 274.924713,105.457138 275.025024,102.775284 
	C275.527863,89.327850 275.868866,75.862999 275.736359,62.409496 
	C275.691315,57.838890 271.700775,55.370003 267.346893,55.978470 
	C263.352173,56.536743 261.131561,59.695934 261.078918,65.351639 
	C260.981232,75.841583 261.171417,86.336189 260.941986,96.822304 
	C260.750397,105.580383 255.506714,110.269081 246.839340,109.963631 
	C238.726395,109.677727 234.206604,104.821327 234.089828,95.884583 
	C233.952774,85.395477 234.129623,74.902161 233.978973,64.413422 
	C233.901810,59.040710 231.167633,56.025036 226.839813,55.900436 
	C222.239258,55.767982 219.180634,58.793846 219.105194,64.338692 
	C218.955704,75.325493 218.797104,86.330154 219.248230,97.302521 
	C219.791428,110.514099 226.491974,119.282227 237.532959,122.396149 
	C251.692230,126.389542 264.495056,122.313278 272.357056,110.732353 
M311.455688,82.123543 
	C309.404175,81.453606 307.344666,80.807152 305.302948,80.108559 
	C301.714203,78.880623 299.800201,76.387665 300.150543,72.560593 
	C300.513519,68.595413 303.575531,67.453033 306.848602,67.103531 
	C312.662994,66.482666 318.107910,67.323639 322.473511,71.827957 
	C323.463104,72.848999 325.123810,74.215279 326.167358,73.990639 
	C328.698608,73.445778 332.434021,72.605522 333.119385,70.870895 
	C333.969452,68.719475 333.071838,64.843216 331.471344,62.934067 
	C323.910370,53.914707 306.895447,52.042637 295.554657,58.486328 
	C287.504944,63.060078 284.031097,70.558540 286.269440,79.087402 
	C288.375458,87.112007 294.774384,90.585045 301.885529,93.078270 
	C307.052246,94.889763 312.357697,96.318375 317.477112,98.247292 
	C320.692902,99.458954 322.576660,101.945457 321.970001,105.686096 
	C321.407562,109.154160 319.150452,110.695450 315.852905,111.258301 
	C310.012634,112.255165 304.602631,111.335121 299.735260,107.887871 
	C297.837433,106.543755 296.089691,104.989594 294.243225,103.570633 
	C290.965759,101.051964 287.716003,101.170319 284.850281,104.118904 
	C281.977112,107.075142 282.811096,110.118004 285.091248,113.076836 
	C293.122437,123.498581 312.963013,126.764160 325.284576,119.740326 
	C331.846222,115.999893 335.942017,110.827179 335.645721,102.911209 
	C335.326904,94.394249 330.576660,89.082855 323.061890,85.997025 
	C319.542023,84.551636 315.823700,83.589424 311.455688,82.123543 
M196.024933,72.717674 
	C196.761383,72.095963 197.434357,71.061966 198.247238,70.936829 
	C200.038071,70.661156 201.903275,70.918724 203.731354,70.825569 
	C208.854233,70.564522 211.969727,67.857201 211.833450,63.872131 
	C211.691025,59.706951 208.668137,57.143269 203.641342,57.008739 
	C201.200745,56.943424 198.756943,56.997456 196.311951,56.997456 
	C195.256790,50.928055 198.410965,42.429321 189.251602,41.951180 
	C178.632462,41.396828 181.887939,51.010559 180.744705,56.889191 
	C171.714020,57.155205 168.555695,58.945446 168.428787,63.627781 
	C168.307236,68.112297 171.307571,69.994499 181.029602,71.359840 
	C181.029602,73.112518 181.023193,74.918961 181.030640,76.725349 
	C181.072556,86.886978 181.012589,97.050529 181.200790,107.209480 
	C181.316605,113.461754 183.913177,118.736115 189.954727,120.913536 
	C195.984314,123.086639 202.359100,123.524033 208.210342,119.752312 
	C211.383652,117.706802 211.973663,114.684082 210.622131,111.447304 
	C209.304047,108.290611 206.872894,107.981659 203.618011,108.948570 
	C198.544220,110.455795 196.027786,108.356659 196.013367,103.168594 
	C195.986023,93.339149 196.013580,83.509560 196.024933,72.717674 
z"/>
<path fill="#02A0E8" opacity="1.000000" stroke="none" 
	d="
M77.999847,126.570633 
	C58.668903,126.570602 39.837326,126.491936 21.007610,126.644135 
	C17.646233,126.671303 15.647606,125.759918 13.858872,122.751373 
	C-14.138589,75.661423 14.229779,14.082660 68.290550,4.942878 
	C89.632477,1.334707 109.316277,5.711052 127.234047,17.884144 
	C128.677673,18.864923 130.011368,20.007494 132.392380,21.842768 
	C120.031311,21.842768 108.945168,21.829229 97.859085,21.846458 
	C86.028160,21.864845 74.179962,21.515377 62.370075,22.031092 
	C39.007809,23.051279 23.665941,45.796566 31.128448,67.824554 
	C35.792828,81.592972 48.955967,90.782578 64.664108,90.967735 
	C77.327431,91.116997 89.994415,90.933151 102.658646,91.036133 
	C110.593491,91.100655 116.972427,95.703209 119.515900,102.865555 
	C121.928596,109.659615 120.178909,117.906960 113.897308,122.108803 
	C110.008980,124.709755 104.754608,125.922005 99.979431,126.389938 
	C92.881813,127.085442 85.665596,126.570572 77.999847,126.570633 
z"/>
<path fill="#353535" opacity="1.000000" stroke="none" 
	d="
M41.615932,150.392792 
	C38.362625,148.157990 35.412319,146.128082 32.462017,144.098175 
	C32.570564,143.786209 32.679111,143.474243 32.787659,143.162277 
	C42.032967,143.162277 51.278275,143.163635 60.523582,143.161942 
	C74.189819,143.159439 87.859001,143.332489 101.521553,143.106155 
	C118.725998,142.821136 131.140381,133.752457 135.845764,118.472687 
	C142.631088,96.438759 125.992905,74.484772 101.986771,74.045601 
	C89.324684,73.813957 76.654472,74.066765 63.988811,73.976646 
	C55.627808,73.917160 49.332233,69.350182 46.911728,61.881275 
	C44.521172,54.504776 46.616142,47.133587 53.249397,42.456326 
	C55.946869,40.554279 59.607426,39.067581 62.846786,39.034035 
	C90.176239,38.751022 117.509903,38.801498 144.841125,38.957546 
	C146.351273,38.966171 148.382629,40.454792 149.277725,41.834354 
	C170.957794,75.248253 161.366745,123.499100 127.753807,146.637772 
	C100.262657,165.562286 71.316818,166.295807 41.615932,150.392792 
z"/>
<path fill="#373737" opacity="1.000000" stroke="none" 
	d="
M495.783203,54.608921 
	C508.824982,55.766811 515.207520,62.372307 515.883179,76.475967 
	C516.488586,89.113060 516.257080,101.796059 516.175537,114.457397 
	C516.142883,119.519859 513.388123,122.260269 509.062531,122.357185 
	C504.633667,122.456413 501.513611,119.566086 501.369232,114.385437 
	C501.123291,105.560745 501.302307,96.724434 501.282837,87.893051 
	C501.277679,85.561111 501.271454,83.225327 501.141876,80.898209 
	C500.670227,72.426941 496.931580,68.372185 489.536499,68.226379 
	C481.795380,68.073746 475.400543,72.883049 474.967896,80.282104 
	C474.375488,90.412201 474.645782,100.591980 474.504272,110.749878 
	C474.476532,112.739975 474.495239,114.779305 474.075531,116.705032 
	C473.255707,120.466370 470.822357,122.096924 466.864319,122.076759 
	C462.842957,122.056259 460.362427,120.326653 459.950500,116.472969 
	C459.492126,112.184868 459.565430,107.835258 459.498688,103.511009 
	C459.380524,95.849297 459.579498,88.173775 459.186462,80.527641 
	C458.760345,72.238213 455.012238,68.487610 447.767151,68.244606 
	C439.883118,67.980179 433.375366,73.064751 432.995850,80.646416 
	C432.513275,90.288055 432.741455,99.965034 432.648346,109.626625 
	C432.630737,111.456062 432.699341,113.305504 432.459229,115.109940 
	C431.800751,120.058899 428.966797,122.686195 424.620941,122.317757 
	C420.019684,121.927666 417.836700,119.101196 417.768188,114.662231 
	C417.660217,107.665535 417.696014,100.666481 417.688416,93.668411 
	C417.678833,84.836639 417.676849,76.004837 417.690308,67.173080 
	C417.701447,59.857498 419.327301,56.715996 423.581909,56.015659 
	C429.655640,55.015884 431.737671,59.039547 432.887848,64.029854 
	C450.612427,50.176010 464.688782,51.348267 472.663239,67.681046 
	C478.506805,60.092640 485.209198,54.146156 495.783203,54.608921 
z"/>
<path fill="#363636" opacity="1.000000" stroke="none" 
	d="
M539.161743,118.934120 
	C525.721191,110.332565 522.029053,97.824081 524.089478,83.247925 
	C525.962585,69.996933 533.169189,60.460747 546.059265,56.111034 
	C566.147827,49.332218 587.119629,66.294456 586.934387,87.356522 
	C586.895386,91.786980 583.939087,94.119644 578.828735,94.144127 
	C565.684509,94.207092 552.539795,94.165184 538.799805,94.165184 
	C539.149536,99.622772 541.902588,103.438721 545.939514,106.074165 
	C553.668335,111.119873 561.790771,111.413513 569.944702,106.819023 
	C570.955139,106.249680 571.928101,105.513885 573.017639,105.203644 
	C576.421265,104.234505 579.866394,104.145584 581.793762,107.708374 
	C583.765442,111.353157 582.496277,114.591232 579.141357,116.759262 
	C566.392761,124.997780 553.168945,126.155594 539.161743,118.934120 
M567.830566,73.760887 
	C561.647461,67.745949 554.492249,66.855667 546.743042,70.021393 
	C541.972595,71.970245 539.269348,76.529739 539.430054,81.694954 
	C549.850952,81.694954 560.273743,81.694954 571.740234,81.694954 
	C570.448853,78.888275 569.395142,76.598053 567.830566,73.760887 
z"/>
<path fill="#363636" opacity="1.000000" stroke="none" 
	d="
M409.895874,82.523636 
	C410.682281,90.856560 410.336456,98.549805 406.598969,105.821297 
	C399.683411,119.275864 384.551910,126.060966 368.525391,122.746277 
	C354.335510,119.811447 343.873535,107.505531 342.859283,92.788612 
	C341.811157,77.580353 347.192383,65.541023 360.837158,58.314117 
	C379.736420,48.304214 405.019928,58.036861 409.895874,82.523636 
M359.008545,97.094604 
	C362.799072,105.759499 369.988556,110.651917 377.784576,109.871597 
	C386.021057,109.047195 393.137970,102.734108 394.871674,94.714417 
	C396.957550,85.065636 393.171661,74.447083 385.653473,70.851738 
	C382.381012,69.286804 378.264099,68.312241 374.715210,68.711067 
	C361.639923,70.180450 355.057617,81.968925 359.008545,97.094604 
z"/>
<path fill="#363636" opacity="1.000000" stroke="none" 
	d="
M272.202057,111.069824 
	C264.495056,122.313278 251.692230,126.389542 237.532959,122.396149 
	C226.491974,119.282227 219.791428,110.514099 219.248230,97.302521 
	C218.797104,86.330154 218.955704,75.325493 219.105194,64.338692 
	C219.180634,58.793846 222.239258,55.767982 226.839813,55.900436 
	C231.167633,56.025036 233.901810,59.040710 233.978973,64.413422 
	C234.129623,74.902161 233.952774,85.395477 234.089828,95.884583 
	C234.206604,104.821327 238.726395,109.677727 246.839340,109.963631 
	C255.506714,110.269081 260.750397,105.580383 260.941986,96.822304 
	C261.171417,86.336189 260.981232,75.841583 261.078918,65.351639 
	C261.131561,59.695934 263.352173,56.536743 267.346893,55.978470 
	C271.700775,55.370003 275.691315,57.838890 275.736359,62.409496 
	C275.868866,75.862999 275.527863,89.327850 275.025024,102.775284 
	C274.924713,105.457138 273.286255,108.081482 272.202057,111.069824 
z"/>
<path fill="#373737" opacity="1.000000" stroke="none" 
	d="
M311.825500,82.265884 
	C315.823700,83.589424 319.542023,84.551636 323.061890,85.997025 
	C330.576660,89.082855 335.326904,94.394249 335.645721,102.911209 
	C335.942017,110.827179 331.846222,115.999893 325.284576,119.740326 
	C312.963013,126.764160 293.122437,123.498581 285.091248,113.076836 
	C282.811096,110.118004 281.977112,107.075142 284.850281,104.118904 
	C287.716003,101.170319 290.965759,101.051964 294.243225,103.570633 
	C296.089691,104.989594 297.837433,106.543755 299.735260,107.887871 
	C304.602631,111.335121 310.012634,112.255165 315.852905,111.258301 
	C319.150452,110.695450 321.407562,109.154160 321.970001,105.686096 
	C322.576660,101.945457 320.692902,99.458954 317.477112,98.247292 
	C312.357697,96.318375 307.052246,94.889763 301.885529,93.078270 
	C294.774384,90.585045 288.375458,87.112007 286.269440,79.087402 
	C284.031097,70.558540 287.504944,63.060078 295.554657,58.486328 
	C306.895447,52.042637 323.910370,53.914707 331.471344,62.934067 
	C333.071838,64.843216 333.969452,68.719475 333.119385,70.870895 
	C332.434021,72.605522 328.698608,73.445778 326.167358,73.990639 
	C325.123810,74.215279 323.463104,72.848999 322.473511,71.827957 
	C318.107910,67.323639 312.662994,66.482666 306.848602,67.103531 
	C303.575531,67.453033 300.513519,68.595413 300.150543,72.560593 
	C299.800201,76.387665 301.714203,78.880623 305.302948,80.108559 
	C307.344666,80.807152 309.404175,81.453606 311.825500,82.265884 
z"/>
<path fill="#363636" opacity="1.000000" stroke="none" 
	d="
M196.021637,73.198853 
	C196.013580,83.509560 195.986023,93.339149 196.013367,103.168594 
	C196.027786,108.356659 198.544220,110.455795 203.618011,108.948570 
	C206.872894,107.981659 209.304047,108.290611 210.622131,111.447304 
	C211.973663,114.684082 211.383652,117.706802 208.210342,119.752312 
	C202.359100,123.524033 195.984314,123.086639 189.954727,120.913536 
	C183.913177,118.736115 181.316605,113.461754 181.200790,107.209480 
	C181.012589,97.050529 181.072556,86.886978 181.030640,76.725349 
	C181.023193,74.918961 181.029602,73.112518 181.029602,71.359840 
	C171.307571,69.994499 168.307236,68.112297 168.428787,63.627781 
	C168.555695,58.945446 171.714020,57.155205 180.744705,56.889191 
	C181.887939,51.010559 178.632462,41.396828 189.251602,41.951180 
	C198.410965,42.429321 195.256790,50.928055 196.311951,56.997456 
	C198.756943,56.997456 201.200745,56.943424 203.641342,57.008739 
	C208.668137,57.143269 211.691025,59.706951 211.833450,63.872131 
	C211.969727,67.857201 208.854233,70.564522 203.731354,70.825569 
	C201.903275,70.918724 200.038071,70.661156 198.247238,70.936829 
	C197.434357,71.061966 196.761383,72.095963 196.021637,73.198853 
z"/>
<path fill="#F7F7F7" opacity="1.000000" stroke="none" 
	d="
M568.085938,74.034355 
	C569.395142,76.598053 570.448853,78.888275 571.740234,81.694954 
	C560.273743,81.694954 549.850952,81.694954 539.430054,81.694954 
	C539.269348,76.529739 541.972595,71.970245 546.743042,70.021393 
	C554.492249,66.855667 561.647461,67.745949 568.085938,74.034355 
z"/>
<path fill="#FDFDFD" opacity="1.000000" stroke="none" 
	d="
M358.891632,96.701157 
	C355.057617,81.968925 361.639923,70.180450 374.715210,68.711067 
	C378.264099,68.312241 382.381012,69.286804 385.653473,70.851738 
	C393.171661,74.447083 396.957550,85.065636 394.871674,94.714417 
	C393.137970,102.734108 386.021057,109.047195 377.784576,109.871597 
	C369.988556,110.651917 362.799072,105.759499 358.891632,96.701157 
z"/>
</svg>